<svg width="32" height="32" viewBox="0 0 32 32" fill="none" xmlns="http://www.w3.org/2000/svg">
<path fill-rule="evenodd" clip-rule="evenodd" d="M8.53403 2.90996C9.82054 2.80725 11.0419 2.30123 12.024 1.46396C13.1333 0.519146 14.5429 0.000244141 16 0.000244141C17.4572 0.000244141 18.8667 0.519146 19.976 1.46396C20.9582 2.30123 22.1795 2.80725 23.466 2.90996C24.9189 3.02608 26.2829 3.65589 27.3135 4.68649C28.3441 5.7171 28.9739 7.0811 29.09 8.53396C29.192 9.81996 29.698 11.042 30.536 12.024C31.4808 13.1333 31.9997 14.5428 31.9997 16C31.9997 17.4571 31.4808 18.8666 30.536 19.976C29.6988 20.9581 29.1927 22.1794 29.09 23.466C28.9739 24.9188 28.3441 26.2828 27.3135 27.3134C26.2829 28.344 24.9189 28.9739 23.466 29.09C22.1795 29.1927 20.9582 29.6987 19.976 30.536C18.8667 31.4808 17.4572 31.9997 16 31.9997C14.5429 31.9997 13.1333 31.4808 12.024 30.536C11.0419 29.6987 9.82054 29.1927 8.53403 29.09C7.08116 28.9739 5.71716 28.344 4.68656 27.3134C3.65595 26.2828 3.02614 24.9188 2.91002 23.466C2.80731 22.1794 2.30129 20.9581 1.46402 19.976C0.519207 18.8666 0.000305176 17.4571 0.000305176 16C0.000305176 14.5428 0.519207 13.1333 1.46402 12.024C2.30129 11.0418 2.80731 9.82048 2.91002 8.53396C3.02614 7.0811 3.65595 5.7171 4.68656 4.68649C5.71716 3.65589 7.08116 3.02608 8.53403 2.90996ZM23.414 13.414C23.7783 13.0368 23.9799 12.5316 23.9754 12.0072C23.9708 11.4828 23.7605 10.9811 23.3897 10.6103C23.0188 10.2395 22.5172 10.0292 21.9928 10.0246C21.4684 10.0201 20.9632 10.2216 20.586 10.586L14 17.172L11.414 14.586C11.0368 14.2216 10.5316 14.0201 10.0072 14.0246C9.48283 14.0292 8.9812 14.2395 8.61039 14.6103C8.23957 14.9811 8.02923 15.4828 8.02468 16.0072C8.02012 16.5316 8.22171 17.0368 8.58603 17.414L12.586 21.414C12.9611 21.7889 13.4697 21.9995 14 21.9995C14.5304 21.9995 15.039 21.7889 15.414 21.414L23.414 13.414Z" fill="#3EC3D4"/>
</svg>
