<svg width="20" height="20" viewBox="0 0 20 20" fill="none" xmlns="http://www.w3.org/2000/svg">
<path id="Vector" d="M8.48772 3.02458H3.48772C2.95728 3.02458 2.44858 3.23529 2.0735 3.61036C1.69843 3.98544 1.48772 4.49414 1.48772 5.02458V16.0246C1.48772 16.555 1.69843 17.0637 2.0735 17.4388C2.44858 17.8139 2.95728 18.0246 3.48772 18.0246H14.4877C15.0181 18.0246 15.5269 17.8139 15.9019 17.4388C16.277 17.0637 16.4877 16.555 16.4877 16.0246V11.0246L8.48772 3.02458ZM15.0737 1.61058C15.2582 1.41956 15.4789 1.26719 15.7229 1.16237C15.9669 1.05756 16.2294 1.00238 16.4949 1.00008C16.7605 0.997768 17.0238 1.04837 17.2696 1.14893C17.5154 1.24949 17.7387 1.398 17.9265 1.58579C18.1143 1.77357 18.2628 1.99688 18.3634 2.24267C18.4639 2.48846 18.5145 2.75182 18.5122 3.01738C18.5099 3.28294 18.4547 3.54538 18.3499 3.78939C18.2451 4.03339 18.0927 4.25408 17.9017 4.43858L9.31572 13.0246H6.48772V10.1966L15.0737 1.61058Z" stroke="white" stroke-width="2" stroke-linecap="round" stroke-linejoin="round"/>
</svg>
